<svg xmlns="http://www.w3.org/2000/svg" width="235.8087158203125" height="227.75880432128906" viewBox="2.5576419830322266 -8.446975708007812 235.8087158203125 227.75880432128906"><title>Neo4j Graph Visualization</title><desc>Created using Neo4j (http://www.neo4j.com/)</desc><g class="layer relationships"><g class="relationship" transform="translate(149.30550686357932 190.31181168874974) rotate(255.53069504552968)"><path class="outline" fill="#A5ABB6" stroke="none" d="M 25 0.5 L 28.026423027352784 0.5 L 28.026423027352784 -0.5 L 25 -0.5 Z M 73.58892302735279 0.5 L 76.61534605470557 0.5 L 76.61534605470557 3.5 L 83.61534605470557 0 L 76.61534605470557 -3.5 L 76.61534605470557 -0.5 L 73.58892302735279 -0.5 Z"/><text text-anchor="middle" pointer-events="none" font-size="8px" fill="#000000" x="50.807673027352784" y="3" transform="rotate(180 50.807673027352784 0)" font-family="sans-serif">ACTED_IN</text></g><g class="relationship" transform="translate(209.36635785052067 26.272754151565184) rotate(505.97655740005143)"><path class="outline" fill="#A5ABB6" stroke="none" d="M 25 0.5 L 25.66008480086299 0.5 L 25.66008480086299 -0.5 L 25 -0.5 Z M 72.55070980086299 0.5 L 73.21079460172598 0.5 L 73.21079460172598 3.5 L 80.21079460172598 0 L 73.21079460172598 -3.5 L 73.21079460172598 -0.5 L 72.55070980086299 -0.5 Z"/><text text-anchor="middle" pointer-events="none" font-size="8px" fill="#000000" x="49.10539730086299" y="3" transform="rotate(180 49.10539730086299 0)" font-family="sans-serif">DIRECTED</text></g><g class="relationship" transform="translate(34.87031421235122 20.553025070646047) rotate(396.4968563839724)"><path class="outline" fill="#A5ABB6" stroke="none" d="M 25 0.5 L 28.015031579489076 0.5 L 28.015031579489076 -0.5 L 25 -0.5 Z M 73.57753157948908 0.5 L 76.59256315897815 0.5 L 76.59256315897815 3.5 L 83.59256315897815 0 L 76.59256315897815 -3.5 L 76.59256315897815 -0.5 L 73.57753157948908 -0.5 Z"/><text text-anchor="middle" pointer-events="none" font-size="8px" fill="#000000" x="50.796281579489076" y="3" font-family="sans-serif">ACTED_IN</text></g><g class="relationship" transform="translate(31.557641226985115 146.2089978998502) rotate(326.0213769163518)"><path class="outline" fill="#A5ABB6" stroke="none" d="M 25 0.5 L 28.352162495694145 0.5 L 28.352162495694145 -0.5 L 25 -0.5 Z M 73.91466249569415 0.5 L 77.26682499138829 0.5 L 77.26682499138829 3.5 L 84.26682499138829 0 L 77.26682499138829 -3.5 L 77.26682499138829 -0.5 L 73.91466249569415 -0.5 Z"/><text text-anchor="middle" pointer-events="none" font-size="8px" fill="#000000" x="51.133412495694145" y="3" font-family="sans-serif">ACTED_IN</text></g></g><g class="layer nodes"><g class="node" transform="translate(149.30550686357932,190.31181168874974)"><circle class="outline" cx="0" cy="0" r="25" fill="#F79767" stroke="#f36924" stroke-width="2px"/><text text-anchor="middle" pointer-events="none" font-family="sans-serif" dy="1.5625" font-size="25" fill="#FFFFFF"/><text text-anchor="middle" pointer-events="none" font-family="sans-serif" dy="1.5625" font-size="25" fill="#FFFFFF"/><text text-anchor="middle" pointer-events="none" x="0" y="0" font-size="10px" fill="#FFFFFF" font-family="sans-serif"> Chris</text><text text-anchor="middle" pointer-events="none" x="0" y="10" font-size="10px" fill="#FFFFFF" font-family="sans-serif"> Evans</text></g><g class="node" transform="translate(122.16673499508668,85.1415665618444)"><circle class="outline" cx="0" cy="0" r="25" fill="#57C7E3" stroke="#23b3d7" stroke-width="2px"/><text text-anchor="middle" pointer-events="none" font-family="sans-serif" dy="1.5625" font-size="25" fill="#2A2C34"/><text text-anchor="middle" pointer-events="none" font-family="sans-serif" dy="1.5625" font-size="25" fill="#2A2C34"/><text text-anchor="middle" pointer-events="none" font-family="sans-serif" dy="1.5625" font-size="25" fill="#2A2C34"/><text text-anchor="middle" pointer-events="none" x="0" y="-5" font-size="10px" fill="#2A2C34" font-family="sans-serif"> Captain</text><text text-anchor="middle" pointer-events="none" x="0" y="5" font-size="10px" fill="#2A2C34" font-family="sans-serif"> America:</text><text text-anchor="middle" pointer-events="none" x="0" y="15" font-size="10px" fill="#2A2C34" font-family="sans-serif"> The Fi…</text></g><g class="node" transform="translate(209.36635785052067,26.272754151565184)"><circle class="outline" cx="0" cy="0" r="25" fill="#F79767" stroke="#f36924" stroke-width="2px"/><text text-anchor="middle" pointer-events="none" font-family="sans-serif" dy="1.5625" font-size="25" fill="#FFFFFF"/><text text-anchor="middle" pointer-events="none" font-family="sans-serif" dy="1.5625" font-size="25" fill="#FFFFFF"/><text text-anchor="middle" pointer-events="none" x="0" y="0" font-size="10px" fill="#FFFFFF" font-family="sans-serif"> Joe</text><text text-anchor="middle" pointer-events="none" x="0" y="10" font-size="10px" fill="#FFFFFF" font-family="sans-serif"> Johnston</text></g><g class="node" transform="translate(34.87031421235122,20.553025070646047)"><circle class="outline" cx="0" cy="0" r="25" fill="#F79767" stroke="#f36924" stroke-width="2px"/><text text-anchor="middle" pointer-events="none" font-family="sans-serif" dy="1.5625" font-size="25" fill="#FFFFFF"/><text text-anchor="middle" pointer-events="none" font-family="sans-serif" dy="1.5625" font-size="25" fill="#FFFFFF"/><text text-anchor="middle" pointer-events="none" x="0" y="0" font-size="10px" fill="#FFFFFF" font-family="sans-serif"> Hayley</text><text text-anchor="middle" pointer-events="none" x="0" y="10" font-size="10px" fill="#FFFFFF" font-family="sans-serif"> Atwell</text></g><g class="node" transform="translate(31.557641226985115,146.2089978998502)"><circle class="outline" cx="0" cy="0" r="25" fill="#F79767" stroke="#f36924" stroke-width="2px"/><text text-anchor="middle" pointer-events="none" font-family="sans-serif" dy="1.5625" font-size="25" fill="#FFFFFF"/><text text-anchor="middle" pointer-events="none" font-family="sans-serif" dy="1.5625" font-size="25" fill="#FFFFFF"/><text text-anchor="middle" pointer-events="none" x="0" y="0" font-size="10px" fill="#FFFFFF" font-family="sans-serif"> Hugo</text><text text-anchor="middle" pointer-events="none" x="0" y="10" font-size="10px" fill="#FFFFFF" font-family="sans-serif"> Weaving</text></g></g></svg>