<svg xmlns="http://www.w3.org/2000/svg" width="240.27517700195312" height="254.62750244140625" viewBox="-48.261226654052734 -54.977901458740234 240.27517700195312 254.62750244140625"><title>Neo4j Graph Visualization</title><desc>Created using Neo4j (http://www.neo4j.com/)</desc><g class="layer relationships"><g class="relationship" transform="translate(101.12264270731747 -4.721548982695878) rotate(413.309966548511)"><path class="outline" fill="#A5ABB6" stroke="none" d="M 17.324116139070416,18.03122292025696 L 18.031222920256962,17.324116139070412 A 45.0228894045808 45.0228894045808 0 0 0 18.347801429615696,17.637577422822773 L 17.647726149817565,18.35164646893496 A 46.0228894045808 46.0228894045808 0 0 1 17.324116139070416,18.03122292025696 Z M 78.961722192749,21.147849553595606 L 78.32954743705002,20.373023716225056 A 45.0228894045808 45.0228894045808 0 0 0 78.67334309272319,20.089678562499532 L 76.75391076751056,17.784081123888697 L 84.37297583701725,15.995269376771875 L 81.2325861930067,23.16380848064731 L 79.31315386779407,20.858211042036476 A 46.0228894045808 46.0228894045808 0 0 1 78.961722192749,21.147849553595606"/><text text-anchor="middle" pointer-events="none" font-size="8px" fill="#000000" x="47.793313581763" y="33.96374996776646" font-family="sans-serif">CHEAPEST_F…</text></g><g class="relationship" transform="translate(18.493577242866305 63.825937928366514) rotate(320.3215508222286)"><path class="outline" fill="#A5ABB6" stroke="none" d="M 5.987513214418485,24.277555179777966 L 6.953439040707552,24.018736134675446 A 46.45148635645006 46.45148635645006 0 0 0 14.44004936391471,39.57011979447452 L 13.635294060044622,40.16372648319438 A 47.45148635645006 47.45148635645006 0 0 1 5.987513214418485,24.277555179777966 Z M 86.2414092623086,44.66051039657179 L 85.5160520074939,43.97213778461829 A 46.45148635645006 46.45148635645006 0 0 0 94.86440394183946,29.46340992937769 L 92.0845828035254,28.335316653543515 L 97.95992510850488,23.165176152617228 L 98.57083212625821,30.96753429715659 L 95.79101098794415,29.839441021322415 A 47.45148635645006 47.45148635645006 0 0 1 86.2414092623086,44.66051039657179"/><text text-anchor="middle" pointer-events="none" font-size="8px" fill="#000000" x="48.91979918468983" y="61.8579027764059" font-family="sans-serif">CHEAPEST_FLIGHT</text></g><g class="relationship" transform="translate(18.493577242866305 63.825937928366514) rotate(448.8520816734398)"><path class="outline" fill="#A5ABB6" stroke="none" d="M 5.987513214418485,24.277555179777966 L 6.953439040707552,24.018736134675446 A 46.17531618559149 46.17531618559149 0 0 0 14.246419636565093,39.2743400764219 L 13.438434918173265,39.863543517387136 A 47.17531618559149 47.17531618559149 0 0 1 5.987513214418485,24.277555179777966 Z M 85.93223369241356,44.37467584201282 L 85.20352921323767,43.68984755548474 A 46.17531618559149 46.17531618559149 0 0 0 94.33156911372421,29.456088207578475 L 91.55240895852175,28.32636752009194 L 97.43077741039319,23.159667960020492 L 98.03711598732748,30.96238245756052 L 95.25795583212502,29.832661770073983 A 47.17531618559149 47.17531618559149 0 0 1 85.93223369241356,44.37467584201282"/><text text-anchor="middle" pointer-events="none" font-size="8px" fill="#000000" x="48.656472775224856" y="61.65289218929103" font-family="sans-serif">CHEAPEST_FLIGHT</text></g><g class="relationship" transform="translate(18.493577242866305 63.825937928366514) rotate(448.8520816734398)"><path class="outline" fill="#A5ABB6" stroke="none" d="M 12.698856172145504,21.540405101092272 L 13.549972844582506,21.015428520757713 A 44.65356850316503 44.65356850316503 0 0 0 14.923363489748787,23.108372212439782 L 14.103003388201948,23.680219485573144 A 45.65356850316503 45.65356850316503 0 0 1 12.698856172145504,21.540405101092272 Z M 85.98415598586506,27.55512824227854 L 85.2300246521437,26.898404608243908 A 44.65356850316503 44.65356850316503 0 0 0 86.82045179537154,24.965231914751183 L 84.45120672743674,23.12493905543053 L 91.50934264510887,19.743708899456742 L 89.97944521928461,27.41895572717872 L 87.61020015134982,25.578662867858068 A 45.65356850316503 45.65356850316503 0 0 1 85.98415598586506,27.55512824227854"/><text text-anchor="middle" pointer-events="none" font-size="8px" fill="#000000" x="49.12479789950587" y="45.66145425202951" font-family="sans-serif">CHEAPEST_FLIGHT</text></g><g class="relationship" transform="translate(101.12264270731747 -4.721548982695878) rotate(413.309966548511)"><path class="outline" fill="#A5ABB6" stroke="none" d="M 24.018736134675446,6.953439040707552 L 24.277555179777966,5.987513214418485 A 98.87084676065368 98.87084676065368 0 0 0 25.176928816149672,6.223972070291808 L 24.92720622026184,7.192289489892971 A 99.87084676065368 99.87084676065368 0 0 1 24.018736134675446,6.953439040707552 Z M 71.61909691961691,7.958895421484158 L 71.40129678776363,6.982902028799202 A 98.87084676065368 98.87084676065368 0 0 0 72.30794813539976,6.77609520552951 L 71.62703756740767,3.8543900872130337 L 79.23874517280355,5.674254733267388 L 73.21582889272254,10.671702029951478 L 72.53491832473046,7.749996911635002 A 99.87084676065368 99.87084676065368 0 0 1 71.61909691961691,7.958895421484158"/><text text-anchor="middle" pointer-events="none" font-size="8px" fill="#000000" x="48.23592330970902" y="12.843064941838946" font-family="sans-serif">CHEAPE…</text></g><g class="relationship" transform="translate(18.493577242866305 63.825937928366514) rotate(320.3215508222286)"><path class="outline" fill="#A5ABB6" stroke="none" d="M 17.324116139070416,18.03122292025696 L 18.031222920256962,17.324116139070412 A 47.78755820296024 47.78755820296024 0 0 0 18.27356617316604,17.564733675458967 L 17.571530654501004,18.276875606911332 A 48.78755820296024 48.78755820296024 0 0 1 17.324116139070416,18.03122292025696 Z M 82.88342355496705,21.155302119252035 L 82.24675930454828,20.384160995826043 A 47.78755820296024 47.78755820296024 0 0 0 82.50933083793933,20.165796069839896 L 80.58285441122867,17.866081179396282 L 88.19641165342621,16.053970222588934 L 85.07796607355355,23.232082590431382 L 83.15148964684289,20.93236769998777 A 48.78755820296024 48.78755820296024 0 0 1 82.88342355496705,21.155302119252035"/><text text-anchor="middle" pointer-events="none" font-size="8px" fill="#000000" x="49.69606332095131" y="34.77394060376227" font-family="sans-serif">CHEAPEST_FL…</text></g><g class="relationship" transform="translate(18.493577242866305 63.825937928366514) rotate(448.8520816734398)"><path class="outline" fill="#A5ABB6" stroke="none" d="M 18.343228848217933,16.993409175968942 L 19.008024713831873,16.246384104727944 A 48.95840430286772 48.95840430286772 0 0 0 19.518573547699937,16.694426059463176 L 18.864205898469642,17.450602612683923 A 49.95840430286772 49.95840430286772 0 0 1 18.343228848217933,16.993409175968942 Z M 81.00220209634031,20.030708859197354 L 80.41277509149867,19.222887216776556 A 48.95840430286772 48.95840430286772 0 0 0 80.95870982388298,18.818712782969197 L 79.15697583595193,16.42001425319643 L 86.85596205800795,15.014449899425511 L 83.36102180779108,22.016977489332884 L 81.55928781986002,19.61827895956012 A 49.95840430286772 49.95840430286772 0 0 1 81.00220209634031,20.030708859197354"/><text text-anchor="middle" pointer-events="none" font-size="8px" fill="#000000" x="49.50351580498015" y="32.0890525522516" font-family="sans-serif">CHEAPEST_F…</text></g><g class="relationship" transform="translate(18.493577242866305 63.825937928366514) rotate(448.8520816734398)"><path class="outline" fill="#A5ABB6" stroke="none" d="M 22.446385545045896,11.018610437035811 L 22.869003806786598,10.112302649999162 A 67.87772387424202 67.87772387424202 0 0 0 24.61795117838317,10.897972063516775 L 24.221099063056524,11.815854626027239 A 68.87772387424202 68.87772387424202 0 0 1 22.446385545045896,11.018610437035811 Z M 75.54984014211684,13.1573885188402 L 75.20147684973377,12.220028920542923 A 67.87772387424202 67.87772387424202 0 0 0 76.98907711063764,11.526791123558434 L 75.86498044780646,8.74535144371423 L 83.6664524740793,9.367472190259738 L 78.4878726610792,15.235377363350706 L 77.36377599824802,12.453937683506501 A 68.87772387424202 68.87772387424202 0 0 1 75.54984014211684,13.1573885188402"/><text text-anchor="middle" pointer-events="none" font-size="8px" fill="#000000" x="49.768851487225426" y="19.948574476176255" font-family="sans-serif">CHEAPES…</text></g><g class="relationship" transform="translate(18.493577242866305 63.825937928366514) rotate(448.8520816734398)"><path class="outline" fill="#A5ABB6" stroke="none" d="M 24.663575034869986,4.118017301971641 L 24.808506894177235,3.1285756633906963 A 184.54784693374404 184.54784693374404 0 0 0 26.600581723258703,3.382106033863039 L 26.46536048837139,4.3729214645238415 A 185.54784693374404 185.54784693374404 0 0 1 24.663575034869986,4.118017301971641 Z M 73.36290002950471,4.791117193291342 L 73.24536953314785,3.7980479195616113 A 184.54784693374404 184.54784693374404 0 0 0 75.04168059788525,3.57651597946853 L 74.65988837153297,0.6009093697338073 L 82.04839472499165,3.181601886268997 L 75.55073689968829,7.543991459114826 L 75.16894467333601,4.568384849380104 A 185.54784693374404 185.54784693374404 0 0 1 73.36290002950471,4.791117193291342"/><text text-anchor="middle" pointer-events="none" font-size="8px" fill="#000000" x="49.905322519643335" y="8.569741759884153" font-family="sans-serif">CHEAPE…</text></g><g class="relationship" transform="translate(18.493577242866305 63.825937928366514) rotate(448.8520816734398)"><path class="outline" fill="#A5ABB6" stroke="none" d="M 24.663575034869986,-4.118017301971641 L 24.808506894177235,-3.1285756633906963 A 184.54784693374404 184.54784693374404 0 0 1 26.600581723258717,-3.382106033863039 L 26.465360488371406,-4.3729214645238415 A 185.54784693374404 185.54784693374404 0 0 0 24.663575034869986,-4.118017301971641 Z M 73.36290002950476,-4.791117193291342 L 73.2453695331479,-3.7980479195616113 A 184.54784693374404 184.54784693374404 0 0 1 75.04168059788525,-3.57651597946853 L 74.65988837153297,-0.6009093697338073 L 82.04839472499165,-3.181601886268997 L 75.55073689968829,-7.543991459114826 L 75.16894467333601,-4.568384849380104 A 185.54784693374404 185.54784693374404 0 0 0 73.36290002950476,-4.791117193291342"/><text text-anchor="middle" pointer-events="none" font-size="8px" fill="#000000" x="49.905322519643356" y="-2.5697417598841525" font-family="sans-serif">CHEAPE…</text></g><g class="relationship" transform="translate(18.493577242866305 63.825937928366514) rotate(448.8520816734398)"><path class="outline" fill="#A5ABB6" stroke="none" d="M 22.446385545045896,-11.018610437035811 L 22.869003806786598,-10.112302649999162 A 67.87772387424202 67.87772387424202 0 0 1 24.617951178383144,-10.897972063516768 L 24.2210990630565,-11.815854626027232 A 68.87772387424202 68.87772387424202 0 0 0 22.446385545045896,-11.018610437035811 Z M 75.5498401421168,-13.1573885188402 L 75.20147684973374,-12.22002892054293 A 67.87772387424202 67.87772387424202 0 0 1 76.98907711063764,-11.526791123558434 L 75.86498044780646,-8.74535144371423 L 83.6664524740793,-9.367472190259738 L 78.4878726610792,-15.235377363350706 L 77.36377599824802,-12.453937683506501 A 68.87772387424202 68.87772387424202 0 0 0 75.5498401421168,-13.1573885188402"/><text text-anchor="middle" pointer-events="none" font-size="8px" fill="#000000" x="49.7688514872254" y="-13.948574476176255" font-family="sans-serif">CHEAPES…</text></g><g class="relationship" transform="translate(18.493577242866305 63.825937928366514) rotate(448.8520816734398)"><path class="outline" fill="#A5ABB6" stroke="none" d="M 18.343228848217933,-16.993409175968942 L 19.008024713831873,-16.246384104727944 A 48.95840430286772 48.95840430286772 0 0 1 19.518573547699944,-16.694426059463183 L 18.864205898469642,-17.45060261268393 A 49.95840430286772 49.95840430286772 0 0 0 18.343228848217933,-16.993409175968942 Z M 81.00220209634031,-20.030708859197347 L 80.41277509149869,-19.22288721677655 A 48.95840430286772 48.95840430286772 0 0 1 80.95870982388298,-18.818712782969197 L 79.15697583595193,-16.42001425319643 L 86.85596205800795,-15.014449899425511 L 83.36102180779108,-22.016977489332884 L 81.55928781986002,-19.61827895956012 A 49.95840430286772 49.95840430286772 0 0 0 81.00220209634031,-20.030708859197347"/><text text-anchor="middle" pointer-events="none" font-size="8px" fill="#000000" x="49.50351580498016" y="-26.0890525522516" font-family="sans-serif">CHEAPEST_F…</text></g><g class="relationship" transform="translate(18.493577242866305 63.825937928366514) rotate(448.8520816734398)"><path class="outline" fill="#A5ABB6" stroke="none" d="M 12.698856172145504,-21.540405101092272 L 13.549972844582506,-21.015428520757713 A 44.65356850316503 44.65356850316503 0 0 1 14.923363489748773,-23.108372212439765 L 14.103003388201934,-23.680219485573126 A 45.65356850316503 45.65356850316503 0 0 0 12.698856172145504,-21.540405101092272 Z M 85.98415598586504,-27.555128242278553 L 85.2300246521437,-26.898404608243926 A 44.65356850316503 44.65356850316503 0 0 1 86.82045179537154,-24.965231914751183 L 84.45120672743674,-23.12493905543053 L 91.50934264510887,-19.743708899456742 L 89.97944521928461,-27.41895572717872 L 87.61020015134982,-25.578662867858068 A 45.65356850316503 45.65356850316503 0 0 0 85.98415598586504,-27.555128242278553"/><text text-anchor="middle" pointer-events="none" font-size="8px" fill="#000000" x="49.12479789950586" y="-39.66145425202951" font-family="sans-serif">CHEAPEST_FLIGHT</text></g><g class="relationship" transform="translate(18.493577242866305 63.825937928366514) rotate(448.8520816734398)"><path class="outline" fill="#A5ABB6" stroke="none" d="M 5.987513214418485,-24.277555179777966 L 6.953439040707552,-24.018736134675446 A 46.17531618559149 46.17531618559149 0 0 1 14.246419636565093,-39.27434007642189 L 13.438434918173265,-39.86354351738713 A 47.17531618559149 47.17531618559149 0 0 0 5.987513214418485,-24.277555179777966 Z M 85.93223369241356,-44.37467584201283 L 85.20352921323766,-43.68984755548474 A 46.17531618559149 46.17531618559149 0 0 1 94.33156911372421,-29.456088207578475 L 91.55240895852175,-28.32636752009194 L 97.43077741039319,-23.159667960020492 L 98.03711598732748,-30.96238245756052 L 95.25795583212502,-29.832661770073983 A 47.17531618559149 47.17531618559149 0 0 0 85.93223369241356,-44.37467584201283"/><text text-anchor="middle" pointer-events="none" font-size="8px" fill="#000000" x="48.65647277522485" y="-55.65289218929103" font-family="sans-serif">CHEAPEST_FLIGHT</text></g><g class="relationship" transform="translate(101.12264270731747 -4.721548982695878) rotate(413.309966548511)"><path class="outline" fill="#A5ABB6" stroke="none" d="M 24.018736134675446,-6.953439040707552 L 24.277555179777966,-5.987513214418485 A 98.87084676065368 98.87084676065368 0 0 1 25.176928816149655,-6.223972070291808 L 24.927206220261823,-7.192289489892971 A 99.87084676065368 99.87084676065368 0 0 0 24.018736134675446,-6.953439040707552 Z M 71.61909691961688,-7.958895421484172 L 71.40129678776361,-6.982902028799202 A 98.87084676065368 98.87084676065368 0 0 1 72.30794813539976,-6.77609520552951 L 71.62703756740767,-3.8543900872130337 L 79.23874517280355,-5.674254733267388 L 73.21582889272254,-10.671702029951478 L 72.53491832473046,-7.749996911635002 A 99.87084676065368 99.87084676065368 0 0 0 71.61909691961688,-7.958895421484172"/><text text-anchor="middle" pointer-events="none" font-size="8px" fill="#000000" x="48.235923309709" y="-6.843064941838946" font-family="sans-serif">CHEAPE…</text></g><g class="relationship" transform="translate(18.493577242866305 63.825937928366514) rotate(320.3215508222286)"><path class="outline" fill="#A5ABB6" stroke="none" d="M 24.018736134675446,6.953439040707552 L 24.277555179777966,5.987513214418485 A 106.42406238392668 106.42406238392668 0 0 0 24.44886714371569,6.033263191043844 L 24.19165780942575,6.999618901097932 A 107.42406238392668 107.42406238392668 0 0 1 24.018736134675446,6.953439040707552 Z M 76.14346530042494,7.824373719234771 L 75.91706038351177,6.850340447935707 A 106.42406238392668 106.42406238392668 0 0 0 76.0897382492207,6.810051441449648 L 75.40565586248307,3.889087338939084 L 83.01933488620162,5.700686556146934 L 77.0018480982042,10.704670244797068 L 76.31776571146658,7.783706142286503 A 107.42406238392668 107.42406238392668 0 0 1 76.14346530042494,7.824373719234771"/><text text-anchor="middle" pointer-events="none" font-size="8px" fill="#000000" x="50.124882850818565" y="13.100353832865522" font-family="sans-serif">CHEAPES…</text></g><g class="relationship" transform="translate(18.493577242866305 63.825937928366514) rotate(320.3215508222286)"><path class="outline" fill="#A5ABB6" stroke="none" d="M 24.018736134675446,-6.953439040707552 L 24.277555179777966,-5.987513214418485 A 106.42406238392668 106.42406238392668 0 0 1 24.448867143715724,-6.033263191043858 L 24.191657809425777,-6.999618901097932 A 107.42406238392668 107.42406238392668 0 0 0 24.018736134675446,-6.953439040707552 Z M 76.14346530042492,-7.824373719234771 L 75.91706038351175,-6.850340447935707 A 106.42406238392668 106.42406238392668 0 0 1 76.0897382492207,-6.810051441449648 L 75.40565586248307,-3.889087338939084 L 83.01933488620162,-5.700686556146934 L 77.0018480982042,-10.704670244797068 L 76.31776571146658,-7.783706142286503 A 107.42406238392668 107.42406238392668 0 0 0 76.14346530042492,-7.824373719234771"/><text text-anchor="middle" pointer-events="none" font-size="8px" fill="#000000" x="50.12488285081857" y="-7.1003538328655225" font-family="sans-serif">CHEAPES…</text></g><g class="relationship" transform="translate(101.12264270731747 -4.721548982695878) rotate(413.309966548511)"><path class="outline" fill="#A5ABB6" stroke="none" d="M 17.324116139070416,-18.03122292025696 L 18.031222920256962,-17.324116139070412 A 45.0228894045808 45.0228894045808 0 0 1 18.347801429615703,-17.637577422822773 L 17.647726149817572,-18.35164646893496 A 46.0228894045808 46.0228894045808 0 0 0 17.324116139070416,-18.03122292025696 Z M 78.96172219274898,-21.147849553595606 L 78.32954743705002,-20.373023716225056 A 45.0228894045808 45.0228894045808 0 0 1 78.67334309272319,-20.089678562499532 L 76.75391076751056,-17.784081123888697 L 84.37297583701725,-15.995269376771875 L 81.2325861930067,-23.16380848064731 L 79.31315386779407,-20.858211042036476 A 46.0228894045808 46.0228894045808 0 0 0 78.96172219274898,-21.147849553595606"/><text text-anchor="middle" pointer-events="none" font-size="8px" fill="#000000" x="47.79331358176301" y="-27.96374996776646" font-family="sans-serif">CHEAPEST_F…</text></g><g class="relationship" transform="translate(18.493577242866305 63.825937928366514) rotate(320.3215508222286)"><path class="outline" fill="#A5ABB6" stroke="none" d="M 17.324116139070416,-18.03122292025696 L 18.031222920256962,-17.324116139070412 A 47.78755820296024 47.78755820296024 0 0 1 18.27356617316604,-17.56473367545896 L 17.571530654500997,-18.276875606911332 A 48.78755820296024 48.78755820296024 0 0 0 17.324116139070416,-18.03122292025696 Z M 82.88342355496707,-21.15530211925202 L 82.24675930454829,-20.38416099582603 A 47.78755820296024 47.78755820296024 0 0 1 82.50933083793933,-20.165796069839896 L 80.58285441122867,-17.866081179396282 L 88.19641165342621,-16.053970222588934 L 85.07796607355355,-23.232082590431382 L 83.15148964684289,-20.93236769998777 A 48.78755820296024 48.78755820296024 0 0 0 82.88342355496707,-21.15530211925202"/><text text-anchor="middle" pointer-events="none" font-size="8px" fill="#000000" x="49.69606332095132" y="-28.77394060376227" font-family="sans-serif">CHEAPEST_FL…</text></g><g class="relationship" transform="translate(18.493577242866305 63.825937928366514) rotate(320.3215508222286)"><path class="outline" fill="#A5ABB6" stroke="none" d="M 5.987513214418485,-24.277555179777966 L 6.953439040707552,-24.018736134675446 A 46.45148635645006 46.45148635645006 0 0 1 14.440049363914696,-39.5701197944745 L 13.635294060044608,-40.16372648319436 A 47.45148635645006 47.45148635645006 0 0 0 5.987513214418485,-24.277555179777966 Z M 86.2414092623086,-44.6605103965718 L 85.5160520074939,-43.9721377846183 A 46.45148635645006 46.45148635645006 0 0 1 94.86440394183946,-29.46340992937769 L 92.0845828035254,-28.335316653543515 L 97.95992510850488,-23.165176152617228 L 98.57083212625821,-30.96753429715659 L 95.79101098794415,-29.839441021322415 A 47.45148635645006 47.45148635645006 0 0 0 86.2414092623086,-44.6605103965718"/><text text-anchor="middle" pointer-events="none" font-size="8px" fill="#000000" x="48.919799184689815" y="-55.8579027764059" font-family="sans-serif">CHEAPEST_FLIGHT</text></g></g><g class="layer nodes"><g class="node" transform="translate(163.01396527014538,78.34218086902139)"><circle class="outline" cx="0" cy="0" r="25" fill="#ECB5C9" stroke="#da7298" stroke-width="2px"/><text text-anchor="middle" pointer-events="none" font-family="sans-serif" dy="1.5625" font-size="25" fill="#2A2C34"/><text text-anchor="middle" pointer-events="none" x="0" y="5" font-size="10px" fill="#2A2C34" font-family="sans-serif"> LAX</text></g><g class="node" transform="translate(20.634071067585715,170.64961133584896)"><circle class="outline" cx="0" cy="0" r="25" fill="#ECB5C9" stroke="#da7298" stroke-width="2px"/><text text-anchor="middle" pointer-events="none" font-family="sans-serif" dy="1.5625" font-size="25" fill="#2A2C34"/><text text-anchor="middle" pointer-events="none" x="0" y="5" font-size="10px" fill="#2A2C34" font-family="sans-serif"> DAY</text></g><g class="node" transform="translate(101.12264270731747,-4.721548982695878)"><circle class="outline" cx="0" cy="0" r="25" fill="#ECB5C9" stroke="#da7298" stroke-width="2px"/><text text-anchor="middle" pointer-events="none" font-family="sans-serif" dy="1.5625" font-size="25" fill="#2A2C34"/><text text-anchor="middle" pointer-events="none" x="0" y="5" font-size="10px" fill="#2A2C34" font-family="sans-serif"> ORD</text></g><g class="node" transform="translate(18.493577242866305,63.825937928366514)"><circle class="outline" cx="0" cy="0" r="25" fill="#ECB5C9" stroke="#da7298" stroke-width="2px"/><text text-anchor="middle" pointer-events="none" font-family="sans-serif" dy="1.5625" font-size="25" fill="#2A2C34"/><text text-anchor="middle" pointer-events="none" x="0" y="5" font-size="10px" fill="#2A2C34" font-family="sans-serif"> MSP</text></g></g></svg>